<?xml version="1.0" encoding="utf-8"?>
<!-- Generator: Adobe Illustrator 19.2.1, SVG Export Plug-In . SVG Version: 6.00 Build 0)  -->
<svg version="1.1" id="Слой_1" xmlns="http://www.w3.org/2000/svg" xmlns:xlink="http://www.w3.org/1999/xlink" x="0px" y="0px"
	 viewBox="0 0 40 40" style="enable-background:new 0 0 40 40;" xml:space="preserve">
<path d="M27.7,37.5c-4.6,2.3-9.2,2.8-12,0.5c-1.1-1-1.7-2.2-1.7-3.7c0-0.5,0.3-3,0.5-3.8l2.1-7.2c0.8-3.1,0.9-4.8,0.1-5.6
	c-1.7-1.6-6.8,0.7-5.3,0.2l0.5-2.2c2.7-1.1,5.2-2,7.3-2c2,0,3.5,0.5,4.6,1.4c2.4,2.4,1.4,6,1.5,5.4c-0.7,4.8-3.7,15.5-2.9,11.4
	c-0.1,0.5-0.6,2.8,0.4,3.6c2,1.6,6.7-0.9,5.3-0.2L27.7,37.5z M23.9,9.6c-2.7,0-4.9-2-4.9-4.5c0-2.5,2.2-4.5,4.9-4.5
	c2.7,0,4.9,2,4.9,4.5C28.8,7.6,26.6,9.6,23.9,9.6z"/>
</svg>
