<?xml version="1.0" encoding="utf-8"?>
<!-- Generator: Adobe Illustrator 19.2.1, SVG Export Plug-In . SVG Version: 6.00 Build 0)  -->
<svg version="1.1" id="Слой_1" xmlns="http://www.w3.org/2000/svg" xmlns:xlink="http://www.w3.org/1999/xlink" x="0px" y="0px"
	 viewBox="0 0 40 40" style="enable-background:new 0 0 40 40;" xml:space="preserve">
<style type="text/css">
	.st0{fill-rule:evenodd;clip-rule:evenodd;}
</style>
<g>
	<g>
		<path class="st0" d="M20,16.7c4.1,0,7.5-3.3,7.5-7.4c0-4.1-3.3-7.4-7.5-7.4c-4.1,0-7.5,3.3-7.5,7.4C12.5,13.4,15.9,16.7,20,16.7z
			 M20,18.6c-7.7,0-13.9,6.2-13.9,13.9c0,0.4,6.2,5.6,13.9,5.6c7.7,0,13.9-5.3,13.9-5.6C33.9,24.8,27.7,18.6,20,18.6z M33,15.8
			c2,0,3.7-1.7,3.7-3.7c0-2.1-1.7-3.7-3.7-3.7c-2,0-3.7,1.7-3.7,3.7C29.3,14.2,30.9,15.8,33,15.8z M33,16.7c-1.9,0-3.6,0.8-4.8,2.1
			c-0.3,0.3,1.4,1.5,4.8,4.4c1.2,0,6.5,0.4,6.5,0C39.5,19.7,36.6,16.7,33,16.7z M6.9,15.7c2,0,3.6-1.6,3.6-3.7c0-2-1.6-3.7-3.6-3.7
			S3.3,10,3.3,12C3.3,14.1,4.9,15.7,6.9,15.7z M11.6,18.7c-1.2-1.3-2.8-2-4.7-2c-3.5,0-6.4,2.9-6.4,6.4c0,0.4,5.3,0,6.4,0
			C10.2,20.2,11.9,19,11.6,18.7z"/>
	</g>
</g>
</svg>
